<?xml version="1.0" standalone="no"?>
<!DOCTYPE svg PUBLIC "-//W3C//DTD SVG 20010904//EN"
 "http://www.w3.org/TR/2001/REC-SVG-20010904/DTD/svg10.dtd">
<svg version="1.0" xmlns="http://www.w3.org/2000/svg"
 width="960.000000pt" height="960.000000pt" viewBox="0 0 960.000000 960.000000"
 preserveAspectRatio="xMidYMid meet">

<g transform="translate(0.000000,960.000000) scale(0.100000,-0.100000)"
fill="#000000" stroke="none">
<path d="M129 8380 c-45 -13 -79 -42 -102 -84 l-22 -41 -3 -1245 c-3 -1339 4
-1724 38 -1990 89 -696 302 -1318 639 -1875 224 -369 546 -757 901 -1087 632
-587 1419 -981 2293 -1148 954 -181 1823 -100 2723 255 480 190 921 455 1314
789 143 122 445 426 561 566 483 581 799 1193 977 1895 85 332 129 622 142
920 14 312 13 2880 -1 2930 -14 50 -64 100 -114 114 -47 13 -9303 14 -9346 1z
m1366 -344 c111 -41 177 -113 210 -230 30 -102 6 -209 -64 -288 -17 -20 -31
-40 -31 -45 0 -6 23 -25 50 -44 92 -62 142 -159 143 -275 1 -125 -72 -237
-189 -291 -52 -24 -60 -24 -285 -24 -205 0 -234 2 -251 18 -10 9 -18 26 -16
37 3 19 12 21 118 27 159 8 208 31 260 122 65 114 26 259 -87 320 -44 23 -69
29 -154 34 -111 7 -143 22 -137 66 3 20 11 23 78 28 122 10 183 47 222 137 58
130 -10 284 -143 322 -38 11 -173 13 -243 4 l-46 -7 0 -553 0 -554 -22 -5
c-13 -3 -120 -4 -238 -3 -259 4 -258 2 -155 115 l65 71 0 429 0 429 -61 59
c-76 75 -84 89 -63 110 15 14 65 16 503 13 445 -3 490 -5 536 -22z m1360 1
c159 -52 259 -191 258 -357 -1 -136 -70 -254 -190 -322 -37 -21 -52 -35 -49
-45 3 -8 66 -101 139 -206 181 -260 172 -244 157 -262 -10 -12 -44 -15 -180
-15 -146 0 -170 2 -188 18 -21 19 -348 490 -358 517 -8 20 11 35 47 35 99 0
213 81 248 176 31 82 28 157 -10 233 -51 101 -142 154 -269 155 -41 0 -87 -3
-102 -7 l-28 -7 0 -471 0 -471 65 -67 c66 -68 78 -94 49 -105 -9 -3 -143 -6
-298 -6 -274 0 -306 3 -306 31 0 4 25 32 55 62 84 86 85 90 81 552 -1 261 -6
397 -13 410 -7 11 -37 45 -67 75 -31 30 -56 60 -56 67 0 31 37 33 500 30 402
-3 472 -5 515 -20z m766 13 c18 -10 19 -27 19 -521 l0 -511 65 -71 c103 -113
104 -111 -155 -115 -118 -1 -225 0 -237 3 l-23 5 0 516 0 515 -70 74 c-69 73
-79 98 -42 108 36 10 424 7 443 -3z m1115 -12 c212 -63 359 -239 385 -458 6
-52 9 -144 6 -205 -9 -175 -49 -277 -149 -381 -107 -112 -247 -163 -445 -164
-95 0 -104 2 -132 26 -52 43 -41 60 54 83 132 32 249 144 295 282 20 58 21 80
18 244 -4 178 -4 181 -35 248 -65 137 -193 226 -356 247 -141 17 -127 82 -127
-564 0 -496 -2 -554 -16 -560 -9 -3 -82 -6 -164 -6 -110 0 -150 3 -159 13 -7
9 -11 173 -13 524 l-3 511 -68 70 c-67 70 -76 95 -39 106 10 2 215 3 457 2
361 -2 449 -6 491 -18z m1484 -3 c173 -53 302 -194 340 -374 19 -89 15 -91
-169 -91 -80 0 -152 4 -159 9 -7 4 -18 41 -23 82 -27 193 -132 299 -299 299
-131 0 -224 -64 -270 -186 -30 -79 -46 -341 -31 -496 18 -185 61 -269 166
-323 53 -27 69 -30 184 -35 119 -5 126 -6 129 -26 2 -14 -7 -29 -24 -43 -25
-19 -39 -21 -194 -21 -196 0 -250 8 -345 54 -152 72 -246 205 -265 376 -12
107 -12 249 0 364 19 181 132 328 310 401 87 36 541 43 650 10z m1604 3 c13
-18 16 -54 16 -184 0 -89 -3 -169 -6 -178 -15 -38 -50 -14 -196 132 l-148 147
-162 3 c-89 2 -177 1 -195 -3 l-33 -6 0 -214 c0 -117 3 -220 6 -229 5 -13 26
-16 126 -16 l120 0 94 91 c127 123 124 126 124 -143 0 -181 -2 -209 -16 -215
-11 -4 -41 19 -97 75 -45 45 -95 86 -110 91 -40 15 -230 14 -245 -1 -9 -9 -12
-83 -12 -273 0 -190 -3 -264 -12 -273 -13 -13 -291 -18 -322 -6 -14 5 -16 61
-16 523 l0 517 -65 64 c-63 63 -81 102 -52 113 6 3 276 6 599 6 l587 1 15 -22z
m1226 2 c6 -9 9 -92 7 -195 -2 -172 -3 -180 -22 -183 -14 -2 -64 40 -174 148
-176 171 -170 168 -318 151 -99 -11 -133 -24 -177 -67 -69 -70 -90 -188 -48
-271 23 -44 79 -98 121 -116 15 -6 117 -14 236 -17 226 -7 261 -14 337 -66 84
-59 148 -203 133 -303 -9 -61 -44 -138 -84 -184 -18 -20 -63 -51 -99 -69 l-67
-33 -450 -3 c-382 -2 -453 -1 -470 12 -18 13 -20 28 -23 176 -3 135 -1 165 13
186 8 13 21 24 27 24 7 0 83 -70 169 -156 l158 -156 158 4 c182 5 223 17 277
79 87 102 72 266 -32 346 -57 43 -115 53 -317 53 -205 0 -257 13 -336 87 -97
91 -133 252 -81 368 27 59 91 128 147 158 79 42 129 46 528 44 323 -2 379 -4
387 -17z m-2490 -569 c6 -12 10 -130 10 -315 0 -254 -2 -297 -16 -310 -13 -13
-42 -16 -162 -16 -81 0 -154 5 -162 10 -12 8 -15 36 -15 154 l0 146 114 114
c141 141 141 164 2 137 -39 -8 -60 -25 -190 -155 -80 -80 -152 -146 -158 -146
-26 0 -33 43 -33 204 0 136 3 167 16 180 13 14 55 16 299 16 271 0 285 -1 295
-19z m1270 -262 c7 -13 10 -80 8 -190 -2 -137 -6 -172 -18 -179 -9 -6 -123 -9
-286 -8 -253 3 -273 4 -293 22 -12 11 -21 29 -19 40 3 20 11 21 128 26 69 3
134 10 145 17 11 6 83 75 160 152 77 78 145 141 152 141 7 0 17 -9 23 -21z
m-6686 -728 l199 -6 -129 -72 c-154 -86 -508 -263 -525 -263 -9 0 -10 18 -6
68 5 52 3 74 -9 97 -9 17 -16 47 -15 67 0 25 -5 41 -17 50 -29 21 -33 35 -16
52 17 18 129 19 518 7z m1211 1 l110 -7 -120 -86 c-234 -167 -538 -346 -867
-514 -145 -73 -163 -80 -215 -79 -71 1 -646 127 -679 149 -43 28 -28 73 36
103 14 7 32 16 40 22 8 5 53 25 100 45 96 41 370 182 535 275 61 35 125 71
143 81 31 16 67 18 420 18 213 -1 437 -4 497 -7z m1862 -15 c39 -21 53 -45 43
-72 -13 -34 -151 -214 -237 -309 -158 -174 -375 -355 -623 -521 -195 -131
-261 -165 -312 -165 -36 0 -566 109 -634 131 -43 13 -68 43 -61 71 5 17 41 44
129 95 355 207 649 426 893 664 66 64 126 118 133 120 7 2 153 4 325 4 275 -1
316 -3 344 -18z m731 -5 c61 -50 73 -54 164 -62 101 -10 106 -11 252 -64 65
-24 133 -41 198 -49 54 -6 98 -14 98 -17 0 -29 -655 -179 -723 -166 -29 5
-411 222 -452 256 -20 17 -19 57 3 69 26 14 168 43 252 51 116 12 177 7 208
-18z m-1573 -63 c-209 -212 -503 -433 -847 -637 -243 -144 -292 -167 -357
-165 -58 1 -627 125 -661 143 -25 13 -36 56 -20 75 6 8 69 44 138 81 294 155
606 346 812 498 l115 85 450 0 450 1 -80 -81z m1270 -185 c157 -94 217 -135
221 -151 18 -72 -277 -427 -521 -627 -142 -117 -282 -214 -327 -228 -34 -10
-71 -4 -351 57 -171 37 -324 74 -339 81 -32 17 -46 57 -27 80 7 8 67 52 133
96 319 213 557 425 761 678 55 68 111 130 125 138 54 28 98 11 325 -124z
m-4253 91 c20 -8 71 -18 114 -24 55 -7 82 -15 91 -27 17 -23 17 -148 1 -162
-15 -11 -190 -84 -192 -80 -1 2 -12 37 -25 78 -12 41 -33 101 -47 133 -39 88
-20 115 58 82z m5360 -75 c-12 -10 -52 -28 -88 -40 -58 -20 -77 -33 -165 -120
-54 -53 -99 -102 -99 -109 0 -19 38 -12 107 19 73 33 88 29 77 -22 -5 -25 -3
-28 20 -28 47 0 182 50 245 90 87 56 101 54 196 -35 67 -62 86 -74 115 -75 27
0 31 -3 20 -10 -77 -50 -560 -178 -624 -164 -36 7 -446 246 -472 275 -14 15
-15 24 -6 43 9 20 25 27 89 41 142 31 430 105 500 130 37 13 77 24 88 24 19 0
19 -1 -3 -19z m3230 -189 c79 -21 118 -45 118 -70 0 -28 -168 -240 -197 -247
-22 -6 -101 2 -129 13 -38 14 19 192 93 291 28 38 28 38 115 13z m-3939 -67
c125 -64 440 -261 449 -280 9 -19 4 -35 -32 -98 -96 -167 -251 -345 -437 -499
-104 -85 -129 -94 -220 -78 -149 27 -551 119 -577 132 -62 30 -60 77 6 124
203 142 429 361 575 556 55 74 111 140 124 146 35 17 75 15 112 -3z m1569 -34
c48 -10 96 -24 108 -30 46 -24 48 -88 4 -116 -20 -14 -37 -14 -164 2 -136 17
-142 17 -178 -1 -28 -15 -59 -19 -134 -20 -73 0 -101 -4 -111 -15 -18 -20
-122 -187 -138 -222 -14 -33 -6 -58 20 -58 18 0 69 54 120 128 16 23 30 32 50
32 57 0 66 -40 22 -100 -15 -21 -36 -66 -45 -99 -9 -34 -20 -61 -24 -61 -4 1
-104 58 -222 128 -203 120 -215 129 -218 159 -4 40 4 44 139 78 152 38 391
120 494 170 106 51 145 55 277 25z m2571 -228 c9 -10 17 -32 17 -48 0 -38 10
-51 40 -55 36 -5 52 -69 25 -99 -10 -11 -27 -20 -37 -20 -11 0 -58 30 -106 67
-116 88 -142 113 -142 134 0 9 39 68 88 130 l87 114 6 -102 c4 -76 9 -107 22
-121z m-8375 127 c404 -86 409 -88 433 -117 21 -26 21 -34 16 -222 -11 -360
-72 -651 -224 -1050 -45 -119 -218 -489 -251 -538 -10 -15 -68 6 -94 35 -30
35 -31 61 -3 87 25 23 26 27 13 53 -11 23 -19 27 -45 25 -28 -3 -35 2 -66 50
-19 29 -49 67 -67 83 -45 42 -58 72 -65 150 -6 69 -23 110 -77 178 l-23 28 22
38 c34 59 40 164 15 242 -50 156 -55 253 -16 355 26 70 36 160 51 452 l5 113
30 6 c34 7 46 28 30 54 -27 42 37 38 316 -22z m5831 -159 c88 -44 111 -68 111
-117 0 -26 -6 -36 -32 -49 -74 -38 -408 -154 -444 -154 -23 0 -16 21 30 102
81 143 183 258 228 258 16 0 64 -18 107 -40z m2146 16 c19 -8 40 -27 47 -41
13 -29 13 -29 -110 -183 -41 -52 -86 -98 -98 -103 -17 -6 -60 0 -148 21 -169
41 -156 32 -156 105 0 74 11 87 72 84 24 -2 76 -2 116 -1 65 2 75 4 79 23 3
11 24 29 48 40 23 11 53 31 65 45 27 28 38 29 85 10z m-6960 -77 c154 -33 293
-65 309 -71 53 -21 60 -57 60 -308 0 -158 -6 -261 -18 -345 -52 -365 -168
-714 -364 -1099 -88 -173 -107 -199 -165 -220 -32 -13 -628 -96 -684 -96 -7 0
-15 24 -19 56 -5 43 -13 62 -32 78 -38 32 -70 67 -97 107 l-25 35 46 80 c70
120 197 385 255 529 154 385 232 729 247 1092 8 189 13 203 76 223 47 14 108
5 411 -61z m3865 -29 c130 -66 440 -256 445 -271 4 -11 0 -30 -8 -42 -7 -12
-16 -41 -20 -65 -6 -45 -40 -93 -187 -257 -84 -93 -124 -124 -171 -131 -35 -5
-611 116 -650 136 -26 14 -51 54 -44 71 3 8 56 61 117 119 128 120 229 238
311 363 46 69 64 88 90 95 34 9 78 3 117 -18z m3395 -50 c87 -63 87 -63 67
-83 -19 -19 -22 -19 -64 -3 -59 23 -94 10 -115 -43 -20 -50 -94 -101 -148
-101 -28 0 -38 -5 -42 -20 -3 -11 -10 -20 -16 -20 -15 0 -67 51 -67 66 0 17
164 228 197 254 44 34 87 23 188 -50z m-836 33 c21 -5 23 -10 19 -59 -3 -30
-8 -57 -11 -60 -7 -7 -196 50 -236 71 l-25 12 25 14 c21 12 89 22 179 27 14 1
36 -1 49 -5z m126 -194 c140 -36 189 -65 179 -106 -9 -35 -198 -267 -229 -282
-27 -13 -39 -12 -120 8 -152 39 -306 93 -334 117 -25 22 -26 26 -27 142 l-1
120 59 64 60 64 142 -47 c77 -26 200 -62 271 -80z m-5656 46 c164 -35 310 -69
324 -74 14 -6 33 -21 41 -34 26 -39 40 -173 39 -387 0 -219 -12 -327 -59 -538
-52 -236 -201 -626 -250 -659 -35 -22 -65 -27 -464 -78 -307 -39 -371 -45
-403 -35 -47 14 -77 42 -77 74 0 12 29 84 64 159 116 243 210 499 262 712 56
231 75 398 75 657 0 109 2 205 6 214 8 20 79 53 116 54 15 0 162 -29 326 -65z
m3996 3 c-4 -13 -20 -47 -36 -76 -32 -58 -31 -72 7 -72 17 0 30 9 42 30 31 54
96 65 119 20 35 -68 -10 -330 -55 -330 -19 0 -395 222 -429 253 -53 47 -27 72
137 126 69 23 139 48 155 56 48 22 68 19 60 -7z m2565 -133 c0 -176 -55 -548
-121 -815 -249 -1013 -865 -1918 -1723 -2533 -83 -60 -106 -68 -106 -39 1 41
41 85 146 164 260 193 521 443 746 714 493 591 834 1320 967 2064 24 137 61
420 61 473 0 26 4 37 15 37 12 0 15 -14 15 -65z m-5637 -70 c164 -36 308 -72
322 -81 31 -20 42 -56 60 -190 19 -143 19 -393 0 -541 -25 -188 -98 -465 -140
-529 -24 -37 -33 -39 -549 -104 -256 -32 -295 -31 -337 11 -28 28 -24 61 21
179 147 381 203 748 176 1152 l-8 127 34 21 c20 12 50 20 79 20 25 0 179 -29
342 -65z m5081 14 l25 -12 -31 -60 c-25 -50 -28 -64 -19 -80 8 -11 10 -35 5
-62 -5 -37 -2 -52 20 -91 45 -80 40 -87 -83 -117 -74 -18 -75 -18 -164 51 -77
58 -87 80 -56 124 42 60 132 172 173 216 43 45 79 54 130 31z m-2309 -78 c246
-141 355 -207 355 -217 0 -6 -9 -19 -20 -29 -28 -26 -25 -44 10 -56 17 -6 30
-15 30 -19 0 -14 -97 -154 -125 -180 -21 -20 -36 -25 -73 -24 -51 2 -592 118
-622 134 -74 40 -68 68 48 200 l97 112 6 -59 c8 -81 36 -138 69 -138 33 0 75
64 96 146 16 64 15 81 -12 178 -6 21 -4 23 17 16 13 -4 69 -32 124 -64z m1214
43 c47 -11 69 -13 98 -5 21 6 41 11 46 11 10 0 9 -52 -2 -69 -13 -20 -83 -30
-217 -31 -120 0 -121 0 -132 25 -19 41 -14 55 21 70 42 19 112 19 186 -1z
m-3110 -170 c167 -36 312 -69 320 -74 52 -28 83 -139 99 -355 14 -178 -15
-470 -57 -577 -18 -46 -46 -56 -251 -82 -107 -15 -247 -33 -310 -42 -160 -22
-220 -22 -261 2 -46 27 -48 65 -10 217 44 175 61 298 68 492 4 127 1 201 -11
293 -12 91 -13 128 -5 143 11 22 62 48 94 49 10 0 156 -30 324 -66z m3217 21
c18 -7 37 -22 43 -33 14 -27 35 -255 26 -298 -8 -46 -43 -68 -96 -61 -22 3
-51 12 -64 21 -14 9 -75 82 -135 163 -109 145 -130 189 -98 209 40 25 264 24
324 -1z m337 -56 c154 -47 194 -79 166 -131 -16 -30 -151 -198 -179 -223 -27
-25 -97 -26 -134 -1 -50 32 -57 54 -63 212 -6 135 -5 148 12 160 29 22 89 17
198 -17z m-682 -81 c175 -226 193 -262 144 -294 -43 -28 -98 -14 -210 53 -55
33 -145 86 -199 118 -99 58 -99 58 -77 76 12 10 49 27 84 39 34 11 91 36 127
55 36 19 66 34 66 35 1 0 30 -37 65 -82z m-1995 -74 c163 -36 307 -69 320 -74
63 -24 99 -173 99 -415 0 -187 -7 -229 -40 -251 -16 -11 -123 -29 -322 -55
-344 -45 -376 -46 -420 -19 -52 31 -56 48 -38 160 22 144 29 329 16 440 -25
201 -25 233 -5 251 19 17 43 26 77 28 10 0 151 -29 313 -65z m3073 -21 c47
-35 47 -35 -60 -48 -68 -8 -84 -17 -75 -40 6 -16 16 -17 81 -12 41 4 75 5 75
2 0 -21 -206 -88 -263 -86 -66 3 -99 -30 -57 -57 22 -13 26 -37 9 -47 -14 -9
-59 34 -59 56 0 20 133 197 182 243 27 25 37 28 78 24 33 -3 61 -15 89 -35z
m-1295 -110 c110 -65 208 -130 219 -144 25 -35 15 -67 -29 -85 -32 -13 -49
-11 -246 31 -282 61 -313 70 -337 101 -12 15 -21 32 -21 39 0 6 20 43 44 80
39 61 50 71 88 81 24 6 52 12 64 13 11 0 109 -52 218 -116z m-882 -62 c146
-33 280 -67 297 -76 43 -22 58 -61 72 -191 14 -121 9 -158 -22 -175 -21 -11
-231 -41 -502 -72 -142 -17 -183 -11 -223 28 -23 23 -24 31 -24 155 0 72 -7
178 -16 236 -15 96 -15 106 0 129 27 41 108 35 418 -34z m765 -166 c254 -55
289 -67 309 -106 36 -71 -4 -89 -293 -125 -230 -28 -259 -26 -301 19 -21 22
-52 139 -52 193 0 39 33 64 84 64 25 0 138 -20 253 -45z m1938 -12 c4 -12 -2
-24 -19 -38 -32 -26 -69 -141 -61 -188 5 -24 2 -37 -10 -47 -17 -14 -19 -13
-182 123 -69 56 -83 73 -83 97 0 16 6 32 12 36 14 9 207 31 284 33 41 1 53 -3
59 -16z m-1557 -260 c37 -28 53 -61 41 -87 -13 -27 -324 -234 -366 -242 -52
-10 -97 12 -159 79 -115 124 -137 172 -91 201 12 8 87 24 167 35 80 12 174 25
210 30 94 14 166 8 198 -16z m1222 -18 c0 -13 -11 -30 -26 -40 -35 -22 -88
-139 -75 -163 10 -19 121 -62 159 -62 30 0 65 76 67 145 1 57 9 75 34 75 20 0
41 -39 41 -75 0 -35 -58 -176 -83 -202 -29 -32 -78 -30 -168 7 -133 55 -145
81 -93 207 42 102 49 112 88 128 38 16 56 9 56 -20z m-1961 -61 c28 -11 68
-47 133 -121 149 -168 168 -203 128 -243 -41 -41 -440 -299 -467 -302 -44 -5
-93 8 -120 34 -13 12 -56 66 -94 119 -38 53 -113 147 -166 208 -142 163 -136
156 -129 185 12 47 40 55 337 95 336 46 328 45 378 25z m917 -65 c45 -12 94
-56 94 -86 0 -8 -23 -87 -51 -175 -46 -144 -54 -162 -83 -179 -17 -10 -45 -19
-62 -19 -42 0 -289 123 -310 154 -35 54 -22 71 157 191 91 62 174 115 185 118
10 2 20 5 22 6 2 0 23 -4 48 -10z m-1781 -49 c26 -10 214 -204 286 -295 67
-84 168 -233 200 -294 20 -40 21 -46 8 -70 -15 -28 -423 -309 -498 -343 -31
-14 -53 -18 -79 -13 -68 13 -89 31 -142 125 -133 237 -282 438 -466 631 -80
83 -95 116 -70 153 21 33 51 40 291 71 116 15 251 33 300 40 86 13 127 11 170
-5z m1965 -92 c0 -18 4 -19 34 -14 41 8 66 -12 66 -52 0 -24 -7 -30 -49 -45
-64 -22 -94 -47 -86 -70 6 -14 19 -17 69 -17 72 0 100 -15 94 -50 -3 -23 -27
-44 -97 -82 -31 -17 -32 -18 -16 -48 18 -34 12 -36 -44 -20 -42 12 -91 57 -91
83 0 47 98 349 111 341 5 -3 9 -14 9 -26z m-2892 -37 c83 -42 355 -353 497
-566 82 -124 191 -317 210 -372 23 -67 13 -79 -213 -231 -178 -119 -215 -140
-267 -151 -33 -6 -88 -25 -123 -41 -36 -17 -70 -30 -76 -30 -27 0 -69 64 -160
245 -103 206 -217 391 -341 556 -70 93 -119 151 -302 361 -59 66 -65 93 -30
133 25 29 47 34 422 84 261 35 333 38 383 12z m3667 -99 c71 -37 131 -72 132
-77 2 -6 -3 -19 -11 -30 -13 -18 -18 -17 -131 35 -123 57 -165 83 -165 104 0
15 20 36 35 36 5 -1 68 -31 140 -68z m-4644 -36 c38 -26 197 -192 300 -316 97
-116 198 -255 284 -391 132 -207 326 -607 312 -643 -3 -8 -48 -40 -99 -71
-116 -71 -136 -89 -160 -142 -16 -36 -37 -54 -140 -122 -67 -44 -125 -78 -130
-75 -4 3 -8 13 -8 23 0 9 -11 32 -24 50 -14 18 -28 51 -31 74 -5 26 -19 52
-39 72 -58 58 -106 127 -127 185 -26 72 -84 134 -157 168 -46 21 -64 24 -112
19 l-58 -7 -51 96 c-134 249 -342 542 -563 788 -48 54 -91 109 -94 123 -10 38
12 72 59 93 52 23 700 111 762 104 22 -3 56 -15 76 -28z m3375 -117 c100 -49
193 -100 208 -114 31 -28 34 -66 11 -142 -12 -39 -21 -52 -39 -57 -34 -8 -81
-58 -92 -97 -7 -24 -29 -48 -79 -86 -39 -29 -84 -68 -100 -87 l-31 -34 -119
65 c-66 36 -199 102 -295 147 -156 73 -177 86 -194 118 -19 33 -19 37 -4 60
19 28 425 306 467 318 44 14 79 2 267 -91z m1142 33 c30 -19 42 -43 42 -83 l0
-32 70 7 c74 7 78 4 59 -38 -13 -28 -42 -37 -111 -35 -27 1 -54 -3 -63 -11
-15 -13 -45 -62 -45 -75 0 -3 23 -19 50 -36 54 -33 60 -47 32 -72 -16 -15 -27
-11 -147 59 -72 42 -134 79 -139 84 -8 8 91 186 127 227 31 35 76 37 125 5z
m-5603 -41 c57 -25 268 -257 427 -467 137 -182 277 -402 378 -596 38 -74 43
-88 31 -102 -19 -23 -33 -20 -110 18 -96 49 -128 79 -145 136 -25 83 -47 120
-90 149 -22 16 -73 60 -111 98 l-70 69 -140 -1 -140 0 -3 -32 c-2 -25 -9 -34
-26 -39 -13 -3 -117 -4 -232 -2 -275 5 -264 0 -394 172 -54 72 -131 169 -170
216 -39 47 -88 104 -107 128 -56 67 -46 120 31 159 27 14 711 110 796 112 19
0 53 -8 75 -18z m-1137 -145 c31 -17 107 -94 217 -221 90 -105 228 -285 222
-291 -10 -10 -274 91 -294 113 -26 28 -30 28 -206 7 -158 -19 -155 -20 -176
56 -18 63 -50 101 -112 134 -30 16 -64 40 -76 53 -14 14 -34 23 -53 23 -21 0
-42 11 -68 34 -20 19 -35 37 -32 40 9 8 428 63 493 65 33 0 70 -5 85 -13z
m6460 -128 c21 -21 14 -36 -55 -130 -52 -71 -64 -94 -56 -107 18 -29 49 -25
71 11 30 48 68 82 86 75 26 -10 18 -45 -19 -94 -38 -50 -41 -63 -23 -81 23
-23 38 -11 109 83 39 52 77 95 84 95 25 0 37 -27 24 -51 -33 -62 -163 -229
-178 -229 -24 0 -245 163 -249 183 -4 21 167 257 187 257 4 0 12 -5 19 -12z
m-1549 -119 c143 -59 385 -179 468 -232 l42 -27 -24 -36 c-14 -20 -25 -45 -25
-55 0 -10 -11 -35 -25 -55 -31 -45 -31 -52 0 -174 32 -126 38 -141 86 -222 36
-60 40 -72 34 -108 -5 -32 -15 -46 -39 -61 -51 -33 -109 -22 -203 38 -72 46
-79 53 -88 94 -7 32 -24 58 -60 96 -27 28 -67 69 -87 92 -52 56 -77 60 -134
23 -75 -50 -97 -51 -148 -4 -24 22 -53 45 -65 51 -26 14 -166 44 -198 42 -27
-1 -244 138 -267 170 -23 34 -20 62 12 91 15 14 131 96 259 182 207 139 237
156 274 156 28 0 89 -20 188 -61z m-5474 -191 c405 -567 1008 -1079 1642
-1397 632 -316 1288 -470 2008 -472 503 -2 904 61 1375 213 254 82 433 157
683 286 162 84 169 86 183 68 31 -43 23 -50 -218 -170 -251 -124 -389 -181
-622 -257 -392 -129 -780 -196 -1256 -219 -175 -8 -243 -6 -460 10 -307 24
-374 33 -555 71 -536 113 -983 283 -1405 535 -561 335 -1026 769 -1398 1308
-55 80 -66 106 -43 106 4 0 34 -37 66 -82z m6860 -99 c131 -117 128 -114 120
-138 -10 -33 -42 -25 -98 25 -30 26 -53 41 -55 34 -2 -6 10 -43 28 -82 27 -57
30 -74 22 -93 -17 -36 -44 -38 -113 -10 -105 42 -113 33 -39 -40 28 -27 50
-52 50 -56 0 -10 -30 -39 -40 -39 -14 0 -230 200 -230 213 0 7 11 25 24 42 26
33 18 34 168 -21 42 -16 80 -26 83 -22 3 3 -14 47 -39 97 -25 50 -46 98 -46
108 0 22 39 63 59 63 9 0 57 -36 106 -81z m-2194 -170 c32 -18 59 -35 59 -38
0 -3 -24 -19 -54 -34 -64 -33 -72 -47 -45 -78 23 -27 23 -27 -1 -66 -14 -23
-31 -35 -62 -43 -24 -6 -66 -23 -94 -37 -60 -31 -78 -25 -88 32 -7 36 -55 85
-84 85 -9 0 -25 -14 -34 -30 -14 -24 -24 -30 -50 -30 -40 0 -67 15 -53 28 6 5
88 62 183 126 158 106 176 116 218 116 33 0 64 -9 105 -31z m-3843 -21 c22
-22 13 -39 -68 -126 l-80 -87 64 -62 c35 -35 68 -63 74 -63 6 0 43 36 83 79
77 86 94 98 115 80 25 -21 15 -40 -72 -135 -82 -90 -88 -94 -128 -94 -38 0
-47 6 -123 82 -109 107 -109 109 3 232 98 108 109 117 132 94z m5698 -187 c81
-39 144 -76 144 -83 0 -21 -21 -38 -46 -38 -27 0 -134 -95 -134 -119 0 -22
-19 -41 -41 -41 -18 0 -28 21 -90 193 -39 109 -40 137 -7 150 24 10 30 7 174
-62z m-5392 -84 c16 -12 19 -32 21 -151 3 -121 7 -159 18 -145 2 2 30 37 61
77 44 56 63 72 79 70 42 -6 31 -41 -44 -139 -97 -127 -107 -138 -130 -132 -41
11 -49 40 -49 180 0 73 -4 133 -8 133 -5 0 -29 -28 -54 -63 -25 -34 -56 -71
-67 -81 -21 -20 -22 -20 -43 2 l-21 21 28 38 c153 205 169 219 209 190z m4688
-284 c60 -41 112 -83 118 -93 15 -28 12 -71 -10 -144 -18 -58 -24 -66 -45 -66
-26 0 -45 25 -45 58 0 10 -9 27 -20 37 -14 12 -20 33 -22 74 -3 55 -4 56 -35
59 -28 3 -36 10 -58 56 -18 37 -24 61 -19 80 7 30 -3 35 136 -61z m-4372 52
c14 -17 0 -44 -97 -185 -59 -87 -85 -103 -106 -68 -9 13 5 41 72 142 84 126
104 143 131 111z m205 -125 c142 -81 150 -89 130 -116 -14 -19 -15 -19 -57 4
-24 12 -51 22 -60 22 -11 0 -36 -35 -73 -100 -31 -54 -60 -102 -65 -105 -13
-8 -50 13 -50 28 0 7 27 59 60 117 l59 105 -49 30 c-28 16 -50 37 -50 45 0 15
18 40 28 40 3 0 60 -32 127 -70z m4461 -86 c10 -38 -4 -119 -33 -190 -14 -35
-28 -66 -32 -68 -17 -10 -67 -15 -78 -8 -19 12 51 229 85 265 32 34 50 34 58
1z m-2692 -71 c3 -26 3 -50 -1 -54 -9 -8 -144 18 -156 30 -5 5 22 29 60 54 78
53 86 50 97 -30z m2064 11 c2 -17 -14 -29 -108 -72 -60 -28 -110 -57 -110 -65
0 -7 6 -21 13 -32 13 -17 16 -17 72 9 66 30 90 33 99 10 8 -22 -9 -42 -53 -60
-20 -8 -46 -21 -58 -29 l-21 -14 20 -50 c24 -56 19 -81 -15 -81 -21 0 -31 16
-81 125 -31 69 -56 133 -56 144 0 26 9 32 135 89 117 54 158 61 163 26z
m-3473 -37 c128 -57 150 -76 123 -103 -15 -15 -24 -13 -119 30 -56 25 -108 46
-114 46 -7 0 -17 -11 -23 -25 -13 -28 -15 -26 71 -67 57 -27 62 -33 51 -62 -9
-22 -27 -20 -96 11 -59 26 -61 26 -74 8 -8 -10 -14 -24 -14 -30 0 -7 50 -35
111 -63 97 -45 110 -54 107 -74 -2 -13 -11 -24 -20 -26 -21 -4 -245 94 -271
118 -18 16 -16 21 26 116 74 167 79 174 102 174 12 0 75 -24 140 -53z m340
-133 c115 -37 155 -65 155 -107 0 -36 -61 -208 -81 -228 -26 -26 -59 -24 -163
11 -113 38 -136 53 -136 88 0 30 67 239 83 260 13 17 19 16 142 -24z m2765 4
c20 -22 52 -98 72 -173 14 -50 -1 -96 -35 -114 -42 -21 -171 -61 -199 -61 -18
0 -38 9 -51 24 -24 26 -77 176 -77 220 0 39 35 66 127 97 98 34 136 36 163 7z
m-595 -161 c18 -15 24 -28 19 -40 -5 -15 -14 -17 -50 -11 -23 3 -74 0 -113 -7
-61 -10 -71 -15 -71 -33 1 -48 12 -52 98 -34 132 28 190 -3 179 -98 -7 -66
-25 -79 -126 -98 -118 -21 -135 -20 -168 9 -27 24 -27 25 -9 40 14 11 33 13
71 9 35 -4 70 -1 108 10 55 16 57 18 51 44 -4 15 -8 29 -10 31 -2 2 -40 -4
-86 -12 -96 -18 -128 -14 -159 19 -28 30 -30 95 -2 132 16 22 36 30 99 43 111
24 138 23 169 -4z m-1555 -2 c47 -8 86 -15 88 -15 6 0 42 -66 42 -77 0 -23
-41 -26 -64 -4 -27 25 -171 54 -185 37 -11 -14 -35 -175 -27 -183 3 -3 38 -12
78 -19 62 -10 76 -10 95 2 28 18 38 18 57 -2 22 -22 20 -28 -18 -57 l-34 -26
-88 15 c-115 19 -142 30 -160 66 -14 27 -14 39 0 123 9 51 16 96 16 99 0 4 12
18 26 31 32 29 56 31 174 10z m266 -49 c8 -21 -25 -288 -37 -303 -15 -17 -34
-17 -49 2 -9 11 -8 44 5 151 9 75 19 142 22 150 7 18 52 18 59 0z m922 -10 c2
-10 0 -22 -5 -27 -5 -5 -58 -14 -118 -19 -60 -5 -113 -14 -118 -19 -5 -5 -7
-19 -5 -32 3 -23 6 -24 83 -24 75 0 80 -1 83 -23 4 -27 -5 -31 -89 -40 -63 -7
-64 -7 -67 -40 l-3 -33 130 7 c120 6 131 6 137 -11 14 -36 -13 -43 -233 -61
l-82 -7 -11 29 c-6 15 -14 88 -17 161 -5 117 -4 133 10 139 22 8 190 22 252
20 40 -1 51 -5 53 -20z m-561 -2 c36 -5 47 -24 29 -50 -10 -14 -21 -16 -56
-10 -59 9 -70 -3 -71 -83 -2 -118 -12 -175 -32 -179 -41 -8 -48 14 -45 142 l3
121 -53 5 c-65 7 -93 37 -54 59 16 10 203 7 279 -5z m162 -8 c8 -9 11 -61 9
-162 -3 -145 -4 -149 -25 -152 -34 -5 -41 22 -44 165 -2 98 0 135 10 147 16
20 35 20 50 2z"/>
<path d="M8805 4413 c-27 -2 -54 -8 -58 -12 -7 -7 81 -81 97 -81 7 0 22 36 32
75 4 18 2 24 -7 23 -8 -1 -36 -3 -64 -5z"/>
<path d="M8324 3552 l-45 -77 22 -18 c12 -10 27 -16 33 -14 6 2 30 37 53 77
43 77 44 92 2 103 -16 4 -28 -9 -65 -71z"/>
<path d="M7555 2528 c4 -13 16 -42 26 -66 20 -48 32 -48 78 1 l23 26 -41 21
c-23 11 -53 25 -67 30 -23 9 -25 8 -19 -12z"/>
<path d="M3375 1679 c-15 -44 -23 -84 -19 -89 5 -4 42 -19 81 -34 84 -29 76
-35 112 76 13 37 20 72 16 77 -6 11 -126 51 -150 51 -8 0 -25 -34 -40 -81z"/>
<path d="M6115 1743 c-38 -14 -72 -27 -74 -29 -4 -4 48 -155 58 -166 4 -5 42
4 85 18 78 26 78 27 73 58 -9 52 -48 146 -60 145 -7 0 -43 -12 -82 -26z"/>
</g>
</svg>
